<svg xmlns="http://www.w3.org/2000/svg" viewBox="0 0 900 1000" fill="none">
  <rect width="900" height="1000" fill="transparent"/>
  <g stroke="#9bdcff" stroke-opacity="0.72" stroke-width="3.2" stroke-linecap="round">
    <line x1="63" y1="63" x2="63" y2="451.444"/>
    <line x1="63" y1="548.556" x2="63" y2="937"/>
    <line x1="159.75" y1="63" x2="159.75" y2="451.444"/>
    <line x1="159.75" y1="548.556" x2="159.75" y2="937"/>
    <line x1="256.5" y1="63" x2="256.5" y2="451.444"/>
    <line x1="256.5" y1="548.556" x2="256.5" y2="937"/>
    <line x1="353.25" y1="63" x2="353.25" y2="451.444"/>
    <line x1="353.25" y1="548.556" x2="353.25" y2="937"/>
    <line x1="450" y1="63" x2="450" y2="451.444"/>
    <line x1="450" y1="548.556" x2="450" y2="937"/>
    <line x1="546.75" y1="63" x2="546.75" y2="451.444"/>
    <line x1="546.75" y1="548.556" x2="546.75" y2="937"/>
    <line x1="643.5" y1="63" x2="643.5" y2="451.444"/>
    <line x1="643.5" y1="548.556" x2="643.5" y2="937"/>
    <line x1="740.25" y1="63" x2="740.25" y2="451.444"/>
    <line x1="740.25" y1="548.556" x2="740.25" y2="937"/>
    <line x1="837" y1="63" x2="837" y2="451.444"/>
    <line x1="837" y1="548.556" x2="837" y2="937"/>
    <line x1="63" y1="63" x2="837" y2="63"/>
    <line x1="63" y1="160.111" x2="837" y2="160.111"/>
    <line x1="63" y1="257.222" x2="837" y2="257.222"/>
    <line x1="63" y1="354.333" x2="837" y2="354.333"/>
    <line x1="63" y1="451.444" x2="837" y2="451.444"/>
    <line x1="63" y1="548.556" x2="837" y2="548.556"/>
    <line x1="63" y1="645.667" x2="837" y2="645.667"/>
    <line x1="63" y1="742.778" x2="837" y2="742.778"/>
    <line x1="63" y1="839.889" x2="837" y2="839.889"/>
    <line x1="63" y1="937" x2="837" y2="937"/>
    <line x1="353.25" y1="63" x2="546.75" y2="257.222"/>
    <line x1="546.75" y1="63" x2="353.25" y2="257.222"/>
    <line x1="353.25" y1="742.778" x2="546.75" y2="937"/>
    <line x1="546.75" y1="742.778" x2="353.25" y2="937"/>
  </g>
  <g fill="#c7f0ff" fill-opacity="0.8" font-family="KaiTi, STKaiti, SimSun, serif" font-size="58" text-anchor="middle">
    <text x="256" y="518">&#26970;&#27827;</text>
    <text x="644" y="518">&#28450;&#30028;</text>
  </g>
</svg>
