<svg xmlns="http://www.w3.org/2000/svg" viewBox="0 0 900 1000" fill="none">
  <defs>
    <g id="pointMark" fill="none" stroke-linecap="round" stroke-linejoin="round">
      <path d="M-27 -10H-13V-24 M27 -10H13V-24 M-27 10H-13V24 M27 10H13V24"/>
    </g>
  </defs>
  <rect width="900" height="1000" fill="transparent"/>
  <g stroke="#523618" stroke-opacity="0.86" stroke-width="2.1" stroke-linecap="butt">
    <path d="M63 63V451.444M63 548.556V937M159.75 63V451.444M159.75 548.556V937M256.5 63V451.444M256.5 548.556V937M353.25 63V451.444M353.25 548.556V937M450 63V451.444M450 548.556V937M546.75 63V451.444M546.75 548.556V937M643.5 63V451.444M643.5 548.556V937M740.25 63V451.444M740.25 548.556V937M837 63V451.444M837 548.556V937"/>
    <path d="M63 63H837M63 160.111H837M63 257.222H837M63 354.333H837M63 451.444H837M63 548.556H837M63 645.667H837M63 742.778H837M63 839.889H837M63 937H837"/>
    <path d="M353.25 63L546.75 257.222M546.75 63L353.25 257.222M353.25 742.778L546.75 937M546.75 742.778L353.25 937"/>
  </g>
  <g stroke="#523618" stroke-opacity="0.74" stroke-width="1.95">
    <use href="#pointMark" transform="translate(159.75 257.222)"/>
    <use href="#pointMark" transform="translate(740.25 257.222)"/>
    <use href="#pointMark" transform="translate(159.75 742.778)"/>
    <use href="#pointMark" transform="translate(740.25 742.778)"/>
    <use href="#pointMark" transform="translate(63 354.333)"/>
    <use href="#pointMark" transform="translate(256.5 354.333)"/>
    <use href="#pointMark" transform="translate(450 354.333)"/>
    <use href="#pointMark" transform="translate(643.5 354.333)"/>
    <use href="#pointMark" transform="translate(837 354.333)"/>
    <use href="#pointMark" transform="translate(63 645.667)"/>
    <use href="#pointMark" transform="translate(256.5 645.667)"/>
    <use href="#pointMark" transform="translate(450 645.667)"/>
    <use href="#pointMark" transform="translate(643.5 645.667)"/>
    <use href="#pointMark" transform="translate(837 645.667)"/>
  </g>
  <g fill="#523618" fill-opacity="0.78" font-family="KaiTi, STKaiti, SimSun, serif" font-size="58" text-anchor="middle">
    <text x="256" y="518">&#26970;&#27827;</text>
    <text x="644" y="518">&#28450;&#30028;</text>
  </g>
</svg>
